<svg width="21" height="21" viewBox="0 0 21 21" fill="currentColor" xmlns="http://www.w3.org/2000/svg">
<g clip-path="url(#clip0_529_1972)">
<path d="M20.2644 10.3126C20.2644 4.83839 15.8267 0.400696 10.3525 0.400696C4.87837 0.400696 0.440674 4.83839 0.440674 10.3126C0.440674 15.2598 4.06528 19.3604 8.80382 20.104V13.1777H6.28713V10.3126H8.80382V8.12886C8.80382 5.6447 10.2836 4.27252 12.5477 4.27252C13.6318 4.27252 14.7664 4.46611 14.7664 4.46611V6.90536H13.5166C12.2854 6.90536 11.9013 7.66947 11.9013 8.45409V10.3126H14.6503L14.2108 13.1777H11.9013V20.104C16.6398 19.3604 20.2644 15.2598 20.2644 10.3126Z" fill="currentColor"/>
</g>
<defs>
<clipPath id="clip0_529_1972">
<rect width="19.8237" height="19.8237" fill="white" transform="translate(0.440674 0.400696)"/>
</clipPath>
</defs>
</svg>
