<svg width="20" height="21" viewBox="0 0 20 21" fill="currentColor" xmlns="http://www.w3.org/2000/svg">
<g clip-path="url(#clip0_529_1974)">
<path d="M10 2.18561C12.6483 2.18561 12.962 2.19722 14.0035 2.24368C14.9714 2.28627 15.4941 2.44889 15.8426 2.58441C16.3033 2.76251 16.6363 2.97933 16.9809 3.32392C17.3294 3.67239 17.5423 4.00149 17.7204 4.46224C17.8559 4.81071 18.0186 5.33727 18.0612 6.30136C18.1076 7.34675 18.1192 7.66037 18.1192 10.3048C18.1192 12.9532 18.1076 13.2668 18.0612 14.3083C18.0186 15.2763 17.8559 15.7989 17.7204 16.1474C17.5423 16.6082 17.3255 16.9411 16.9809 17.2857C16.6324 17.6342 16.3033 17.8471 15.8426 18.0252C15.4941 18.1608 14.9676 18.3234 14.0035 18.366C12.9581 18.4124 12.6445 18.424 10 18.424C7.35168 18.424 7.03806 18.4124 5.99654 18.366C5.02858 18.3234 4.50589 18.1608 4.15742 18.0252C3.69668 17.8471 3.3637 17.6303 3.01911 17.2857C2.67064 16.9373 2.45769 16.6082 2.27959 16.1474C2.14407 15.7989 1.98146 15.2724 1.93887 14.3083C1.89241 13.2629 1.88079 12.9493 1.88079 10.3048C1.88079 7.6565 1.89241 7.34288 1.93887 6.30136C1.98146 5.3334 2.14407 4.81071 2.27959 4.46224C2.45769 4.00149 2.67451 3.66852 3.01911 3.32392C3.36757 2.97546 3.69668 2.76251 4.15742 2.58441C4.50589 2.44889 5.03246 2.28627 5.99654 2.24368C7.03806 2.19722 7.35168 2.18561 10 2.18561ZM10 0.400696C7.30909 0.400696 6.97224 0.412311 5.91523 0.458773C4.8621 0.505235 4.13806 0.675595 3.51083 0.91952C2.85649 1.17506 2.30282 1.51191 1.75302 2.06558C1.19935 2.61538 0.8625 3.16905 0.606959 3.81952C0.363034 4.45063 0.192674 5.17078 0.146212 6.22392C0.0997502 7.2848 0.0881348 7.62165 0.0881348 10.3126C0.0881348 13.0035 0.0997502 13.3403 0.146212 14.3973C0.192674 15.4505 0.363034 16.1745 0.606959 16.8017C0.8625 17.4561 1.19935 18.0098 1.75302 18.5596C2.30282 19.1094 2.85649 19.4501 3.50696 19.7017C4.13806 19.9457 4.85822 20.116 5.91136 20.1625C6.96837 20.209 7.30522 20.2206 9.99614 20.2206C12.6871 20.2206 13.0239 20.209 14.0809 20.1625C15.1341 20.116 15.8581 19.9457 16.4853 19.7017C17.1358 19.4501 17.6895 19.1094 18.2393 18.5596C18.7891 18.0098 19.1298 17.4561 19.3814 16.8056C19.6254 16.1745 19.7957 15.4544 19.8422 14.4012C19.8887 13.3442 19.9003 13.0074 19.9003 10.3164C19.9003 7.62552 19.8887 7.28867 19.8422 6.23167C19.7957 5.17853 19.6254 4.4545 19.3814 3.82726C19.1375 3.16905 18.8007 2.61538 18.247 2.06558C17.6972 1.51578 17.1435 1.17506 16.4931 0.923392C15.862 0.679467 15.1418 0.509107 14.0887 0.462645C13.0278 0.412311 12.6909 0.400696 10 0.400696Z" fill="currentColor"/>
<path d="M10 5.22113C7.18907 5.22113 4.90857 7.50164 4.90857 10.3126C4.90857 13.1235 7.18907 15.404 10 15.404C12.811 15.404 15.0915 13.1235 15.0915 10.3126C15.0915 7.50164 12.811 5.22113 10 5.22113ZM10 13.6152C8.17639 13.6152 6.69735 12.1362 6.69735 10.3126C6.69735 8.48895 8.17639 7.00991 10 7.00991C11.8236 7.00991 13.3027 8.48895 13.3027 10.3126C13.3027 12.1362 11.8236 13.6152 10 13.6152Z" fill="currentColor"/>
<path d="M16.4814 5.01974C16.4814 5.67795 15.9471 6.20839 15.2928 6.20839C14.6346 6.20839 14.1041 5.67408 14.1041 5.01974C14.1041 4.36153 14.6384 3.83109 15.2928 3.83109C15.9471 3.83109 16.4814 4.3654 16.4814 5.01974Z" fill="currentColor"/>
</g>
<defs>
<clipPath id="clip0_529_1974">
<rect width="19.8237" height="19.8237" fill="white" transform="translate(0.0881348 0.400696)"/>
</clipPath>
</defs>
</svg>
