<svg width="21" height="21" viewBox="0 0 21 21" fill="currentColor" xmlns="http://www.w3.org/2000/svg">
<g id="HelpCenter_Footer/Width6" clip-path="url(#clip0_529_1975)">
<path id="Vector" d="M19.2682 0.400696H2.37542C1.5662 0.400696 0.911865 1.03955 0.911865 1.8294V18.7919C0.911865 19.5817 1.5662 20.2244 2.37542 20.2244H19.2682C20.0774 20.2244 20.7356 19.5817 20.7356 18.7957V1.8294C20.7356 1.03955 20.0774 0.400696 19.2682 0.400696ZM6.79317 17.2935H3.85058V7.83073H6.79317V17.2935ZM5.32188 6.54141C4.37715 6.54141 3.6144 5.77866 3.6144 4.83781C3.6144 3.89695 4.37715 3.1342 5.32188 3.1342C6.26273 3.1342 7.02548 3.89695 7.02548 4.83781C7.02548 5.77479 6.26273 6.54141 5.32188 6.54141ZM17.8046 17.2935H14.8659V12.6937C14.8659 11.598 14.8466 10.1848 13.3366 10.1848C11.8072 10.1848 11.5749 11.3812 11.5749 12.6163V17.2935H8.64003V7.83073H11.4587V9.12392H11.4974C11.8885 8.38053 12.8487 7.59455 14.2774 7.59455C17.2548 7.59455 17.8046 9.55369 17.8046 12.1014V17.2935Z" fill="currentColor"/>
</g>
<defs>
<clipPath id="clip0_529_1975">
<rect width="19.8237" height="19.8237" fill="white" transform="translate(0.911865 0.400696)"/>
</clipPath>
</defs>
</svg>
