<svg width="21" height="21" viewBox="0 0 21 21" fill="currentColor" xmlns="http://www.w3.org/2000/svg">
<g clip-path="url(#clip0_529_1973)">
<path d="M6.50075 18.366C13.9796 18.366 18.0713 12.1683 18.0713 6.7954C18.0713 6.62117 18.0674 6.44306 18.0597 6.26883C18.8557 5.6932 19.5426 4.9802 20.0882 4.16333C19.3468 4.49315 18.5598 4.70855 17.7538 4.80218C18.6024 4.29352 19.2378 3.49442 19.5422 2.55304C18.7439 3.02616 17.8708 3.3599 16.9605 3.53997C16.3471 2.88822 15.5361 2.45669 14.6529 2.31209C13.7696 2.16748 12.8634 2.31787 12.0742 2.73999C11.285 3.1621 10.6568 3.83245 10.2868 4.64737C9.91683 5.4623 9.82559 6.37642 10.0272 7.2484C8.41072 7.16728 6.82932 6.74736 5.38552 6.01586C3.94173 5.28436 2.66778 4.25761 1.64626 3.00217C1.12707 3.89732 0.968194 4.95657 1.20193 5.96464C1.43566 6.97272 2.04446 7.85398 2.9046 8.42931C2.25886 8.40881 1.62727 8.23495 1.062 7.9221V7.97243C1.06142 8.91182 1.38618 9.82242 1.98107 10.5494C2.57595 11.2765 3.40426 11.775 4.32517 11.9604C3.727 12.1241 3.09919 12.1479 2.49032 12.0301C2.75018 12.838 3.25579 13.5446 3.93656 14.0513C4.61734 14.558 5.43933 14.8395 6.2878 14.8565C4.84734 15.988 3.06796 16.6018 1.23623 16.5989C0.911391 16.5984 0.58687 16.5785 0.264404 16.5392C2.12524 17.7331 4.28989 18.3671 6.50075 18.366Z" fill="currentColor"/>
</g>
<defs>
<clipPath id="clip0_529_1973">
<rect width="19.8237" height="19.8237" fill="white" transform="translate(0.264404 0.400696)"/>
</clipPath>
</defs>
</svg>
