<svg width="24" height="24" viewBox="0 0 24 24" fill="currentColor" xmlns="http://www.w3.org/2000/svg">
<g clip-path="url(#clip0_710_1727)">
<path d="M13.4908 3.96587C11.1006 2.61652 8.11913 2.4109 5.58107 3.3426C3.89117 3.95302 2.3619 5.07748 1.41736 6.61959C0.559555 8.0075 0.238282 9.73595 0.652725 11.3295C1.07038 13.0965 2.29122 14.5743 3.77872 15.5606L2.96268 18.0088L5.77062 16.5116C6.9015 16.8747 8.09022 17.0481 9.2725 17.0096C8.96831 16.0987 8.88571 15.1284 9.03155 14.1792C9.27578 12.8628 9.95045 11.6649 10.9496 10.7737C12.6009 9.22512 14.9462 8.57294 17.1758 8.73036C16.7293 6.68706 15.2932 4.96182 13.4908 3.96587ZM7.08463 7.67016C6.91757 8.47334 5.84451 8.85887 5.22124 8.31913C4.49516 7.80509 4.69756 6.53285 5.55215 6.27904C6.38746 5.95777 7.33522 6.80593 7.08463 7.67016ZM12.89 7.43884C12.8965 8.3609 11.6692 8.93598 10.9785 8.30628C10.8196 8.17405 10.698 8.00269 10.6255 7.80909C10.5531 7.6155 10.5324 7.40637 10.5655 7.20234C10.5986 6.99831 10.6843 6.80643 10.8142 6.64564C10.9441 6.48485 11.1137 6.36071 11.3062 6.28547C12.0579 5.9899 12.9447 6.6228 12.89 7.43563V7.43884Z" fill="currentColor"/>
<path d="M23.0006 13.0258C22.4159 11.7086 21.3171 10.658 20.0384 10.0058C18.902 9.44161 17.6497 9.15016 16.3809 9.15462C15.1121 9.15908 13.8619 9.45934 12.7295 10.0315C11.1649 10.8347 9.86048 12.2708 9.49102 14.0218C9.18581 15.3068 9.45889 16.6947 10.1432 17.8192C11.1616 19.5059 12.9961 20.5822 14.9077 20.9259C16.2892 21.2086 17.7221 21.0416 19.065 20.6496C19.8682 20.9645 20.591 21.4689 21.3717 21.8448L20.7292 19.8336C21.603 19.2103 22.3998 18.4328 22.8817 17.4562C23.5949 16.0972 23.6367 14.4169 23.0102 13.0226L23.0006 13.0258ZM15.1487 13.5302C14.9495 14.1535 14.0403 14.343 13.6065 13.8675C13.1246 13.4274 13.311 12.5086 13.9439 12.3126C14.6507 12.017 15.4603 12.8266 15.1519 13.5334L15.1487 13.5302ZM19.7429 13.6169C19.5019 14.1792 18.6602 14.3077 18.2457 13.874C18.0433 13.6941 17.9951 13.4178 17.9148 13.1736C18.0241 12.7367 18.3132 12.2804 18.8144 12.2612C19.5019 12.1648 20.1059 13.0001 19.7782 13.6169H19.7429Z" fill="currentColor"/>
</g>
<defs>
<clipPath id="clip0_710_1727">
<rect width="23" height="23" fill="white" transform="translate(0.440674 0.812561)"/>
</clipPath>
</defs>
</svg>
