<svg width="21" height="21" viewBox="0 0 21 21" fill="currentColor" xmlns="http://www.w3.org/2000/svg">
<g id="HelpCenter_Footer/Width7" clip-path="url(#clip0_529_1976)">
<path id="Vector" d="M20.3619 6.34786C20.3619 6.34786 20.1683 4.9811 19.572 4.38097C18.817 3.59112 17.973 3.58724 17.5858 3.54078C14.8136 3.33945 10.6513 3.33945 10.6513 3.33945H10.6436C10.6436 3.33945 6.48139 3.33945 3.70916 3.54078C3.32198 3.58724 2.47792 3.59112 1.72291 4.38097C1.12665 4.9811 0.936931 6.34786 0.936931 6.34786C0.936931 6.34786 0.735596 7.95466 0.735596 9.5576V11.0599C0.735596 12.6628 0.933059 14.2696 0.933059 14.2696C0.933059 14.2696 1.12665 15.6364 1.71904 16.2365C2.47405 17.0264 3.46523 16.9992 3.90662 17.0844C5.49407 17.2354 10.6475 17.2819 10.6475 17.2819C10.6475 17.2819 14.8136 17.2741 17.5858 17.0767C17.973 17.0302 18.817 17.0264 19.572 16.2365C20.1683 15.6364 20.3619 14.2696 20.3619 14.2696C20.3619 14.2696 20.5593 12.6667 20.5593 11.0599V9.5576C20.5593 7.95466 20.3619 6.34786 20.3619 6.34786ZM8.59927 12.8835V7.31194L13.954 10.1074L8.59927 12.8835Z" fill="currentColor"/>
</g>
<defs>
<clipPath id="clip0_529_1976">
<rect width="19.8237" height="19.8237" fill="white" transform="translate(0.735596 0.400696)"/>
</clipPath>
</defs>
</svg>
