<svg width="72" height="86" viewBox="0 0 72 86" fill="none" xmlns="http://www.w3.org/2000/svg">
<path fill-rule="evenodd" clip-rule="evenodd" d="M59.6782 55V71.0283C59.6782 71.392 59.4684 71.7274 59.1301 71.9037L36.3332 83.7939C36.1697 83.8792 35.9931 83.9195 35.8188 83.9195C35.6376 83.9195 35.4594 83.8762 35.3014 83.7937L35.3016 83.7935L12.5473 71.9033C12.2098 71.727 12 71.3918 12 71.0283V55" fill="white"/>
<path d="M59.8388 55.1495V71.675C59.8388 71.9174 52.0017 76.0069 36.3275 83.9434C36.1689 84.0287 35.9976 84.0691 35.8285 84.0691C35.6528 84.0691 35.48 84.0257 35.3267 83.9432C19.8827 76.0067 12.1606 71.9173 12.1606 71.675V55.1495" stroke="black" stroke-width="2.04082"/>
<path fill-rule="evenodd" clip-rule="evenodd" d="M41.3728 34.8282L60.6204 44.8613L36.391 57.4949L12.1606 44.8602L31.0291 35.0271C32.5107 35.8213 34.2131 36.2731 36.0238 36.2731C37.9805 36.2731 39.8108 35.7455 41.3728 34.8282Z" fill="white"/>
<path fill-rule="evenodd" clip-rule="evenodd" d="M59.8134 44.2139L69.4742 49.2192C69.7995 49.3876 70.0011 49.7093 70 50.0579C69.9991 50.4067 69.7956 50.7272 69.4692 50.894L47.6125 62.0675C47.4609 62.1451 47.2931 62.1839 47.1256 62.1839C46.9562 62.1839 46.7867 62.1441 46.6336 62.0648L36 56.5541L59.8134 44.2139ZM12.1866 44.2129L36 56.5541L25.3664 62.0648C25.2133 62.1441 25.0438 62.1839 24.8744 62.1839C24.7069 62.1839 24.5391 62.1451 24.3875 62.0675L2.53076 50.894C2.20445 50.7273 2.00088 50.4068 2 50.058C1.99893 49.7094 2.20054 49.3877 2.52577 49.2193L12.1866 44.2129ZM47.6473 26.3469L69.4701 37.5331C69.7962 37.7001 70 38.0206 70 38.369C70.0009 38.7178 69.7995 39.0389 69.4742 39.2073L59.8134 44.2139L41.456 34.7034C44.2817 32.9901 46.1889 29.9854 46.2981 26.5413L46.6674 26.3489C46.9723 26.1909 47.342 26.1901 47.6473 26.3469ZM25.3328 26.3488L25.7019 26.5413C25.8111 29.9854 27.7183 32.9901 30.544 34.7034L12.1866 44.2129L2.52598 39.2072C2.20075 39.0388 2 38.7177 2 38.3689C2.00088 38.0205 2.20401 37.7 2.53011 37.533L24.353 26.3467C24.658 26.1902 25.028 26.191 25.3328 26.3488Z" fill="white" stroke="black" stroke-width="2.04082"/>
<path d="M36 57L36 84" stroke="black" stroke-width="2.04082"/>
<path fill-rule="evenodd" clip-rule="evenodd" d="M46.1244 24.6644C46.1244 27.4171 45.0709 30.0046 43.1581 31.9513C41.245 33.8977 38.7019 34.9697 35.9965 34.9697C33.2915 34.9697 30.7478 33.8977 28.8349 31.9513C24.8864 27.9334 24.8866 21.3954 28.8351 17.3767C32.7839 13.3593 39.2091 13.3593 43.1581 17.3767C45.0709 19.3236 46.1244 21.9115 46.1244 24.6644ZM58.011 20.6723C57.8422 20.5008 57.6134 20.4044 57.3749 20.4044H57.374L54.1001 20.4074C53.6766 18.3683 52.8785 16.4068 51.762 14.6608L54.0913 12.2902C54.4428 11.9328 54.4428 11.3529 54.0913 10.9952L49.4316 6.25377C49.0799 5.89614 48.5104 5.89614 48.159 6.25377L45.8306 8.62255C44.0872 7.51326 42.1967 6.71695 40.193 6.24736L40.1876 2.91422C40.1867 2.40914 39.7839 2 39.2875 2H32.7105C32.2144 2 31.8118 2.40869 31.8105 2.91353L31.8024 6.24462C29.8005 6.71626 27.9104 7.51349 26.1673 8.62232L23.8395 6.25377C23.4881 5.89614 22.9186 5.89637 22.5669 6.25354L17.9036 10.9982C17.7348 11.1701 17.6399 11.403 17.6399 11.6459C17.6399 11.8886 17.7348 12.1217 17.9036 12.2934L20.2318 14.6626C19.1423 16.4364 18.3586 18.3591 17.8953 20.3962L14.6209 20.4044C14.1248 20.4058 13.7231 20.8154 13.7231 21.3202V28.0124C13.7231 28.5172 14.1248 28.9268 14.6209 28.9282L17.8953 28.9364C18.3586 30.9742 19.1423 32.8969 20.2315 34.6702L17.9036 37.0392C17.7348 37.2109 17.6399 37.444 17.6399 37.6867C17.6399 37.9296 17.7348 38.1625 17.9036 38.3342L22.5669 43.0795C22.7356 43.2515 22.9647 43.3479 23.2032 43.3479C23.4422 43.3479 23.6708 43.2512 23.8398 43.0795L26.1421 40.7364C28.1188 42.1081 30.0682 42.7253 31.8024 43.0981L31.8105 46.4198C31.8118 46.9246 32.2144 47.3333 32.7105 47.3333H39.2875C39.7846 47.3333 40.1876 46.9232 40.1876 46.4175V43.0708C42.1892 42.5994 44.0786 41.8024 45.8211 40.694L48.1619 43.0761C48.3306 43.2478 48.5597 43.3444 48.7982 43.3444C49.0369 43.3444 49.2658 43.2478 49.4345 43.0761L54.0947 38.3342C54.4464 37.9768 54.4464 37.3968 54.0947 37.0392L51.7667 34.6702C52.8562 32.8974 53.6397 30.9746 54.1032 28.9369L57.3769 28.9287C57.873 28.9273 58.2749 28.5177 58.2749 28.0128V21.3202C58.2749 21.0771 58.1799 20.8442 58.011 20.6723Z" fill="#ECEEF4" stroke="black" stroke-width="2.04082"/>
</svg>
