<?xml version="1.0" encoding="UTF-8"?>
<svg width="107px" height="107px" viewBox="0 0 107 107" version="1.1" xmlns="http://www.w3.org/2000/svg" xmlns:xlink="http://www.w3.org/1999/xlink">
    <title>Icon / No search result (Sad)</title>
    <defs>
        <filter id="filter-1">
            <feColorMatrix in="SourceGraphic" type="matrix" values="0 0 0 0 0.858824 0 0 0 0 0.886275 0 0 0 0 0.988235 0 0 0 1.000000 0"></feColorMatrix>
        </filter>
        <path d="M37.8714518,0 C58.7868218,0 75.7429036,16.9560818 75.7429036,37.8714518 C75.7429036,45.642616 73.4020915,52.8671946 69.387117,58.8785377 L101.926511,91.4161724 C104.767349,94.2567996 104.757186,98.7319316 101.990534,101.498377 L101.990534,101.498377 L101.497968,101.990907 C98.7177202,104.770948 94.2172374,104.72869 91.4154907,101.926888 L91.4154907,101.926888 L58.8765278,69.3884593 C52.8655843,73.4026132 45.6417499,75.7429036 37.8714518,75.7429036 C16.9560818,75.7429036 0,58.7868218 0,37.8714518 C0,16.9560818 16.9560818,0 37.8714518,0 Z M37.8714518,6.88571851 C20.7569985,6.88571851 6.88571851,20.7569985 6.88571851,37.8714518 C6.88571851,54.9859052 20.7569985,68.8571851 37.8714518,68.8571851 C54.9859052,68.8571851 68.8571851,54.9859052 68.8571851,37.8714518 C68.8571851,20.7569985 54.9859052,6.88571851 37.8714518,6.88571851 Z" id="path-2"></path>
    </defs>
    <g id="Symbols" stroke="none" stroke-width="1" fill="none" fill-rule="evenodd">
        <g id="Icon-/-No-search-result-(Sad)">
            <g id="Icon-/-Search" filter="url(#filter-1)">
                <g>
                    <mask id="mask-3" fill="white">
                        <use xlink:href="#path-2"></use>
                    </mask>
                    <use id="Mask" fill="#4C70F2" xlink:href="#path-2"></use>
                    <g id="Group" mask="url(#mask-3)" fill="#8995B3">
                        <g id="Icon-/-Color-/-Medium-Blue">
                            <rect id="Rectangle" x="0" y="0" width="107" height="107"></rect>
                        </g>
                    </g>
                </g>
            </g>
            <path d="M46.25,53.2050618 C46.25,47.7929291 42.2205627,43.382797 37.25,43.382797 C32.2794373,43.382797 28.25,47.7843863 28.25,53.2050618 C28.25,53.442042 46.25,53.442042 46.25,53.2050618 Z" id="Path" fill="#4C70F2"></path>
            <path d="M29.5,28.2511064 L29.4982114,28.3185826 L29.4982114,28.3185826 L29.492906,28.3851257 C29.2892325,32.156828 26.1153009,35.382797 22.25,35.382797 C18.3332707,35.382797 15.1330323,32.317086 15.0040416,28.4802252 L15,28.239438 C15.0071623,27.5557767 15.5637544,27.0035706 16.2493211,27.0035706 C16.8961783,27.0035706 17.4282144,27.4951781 17.4921922,28.1251559 L17.497,28.239 C17.5,31.0869616 19.5753034,32.7866112 22.0380022,32.878839 L22.25,32.882797 C24.8025033,32.882797 26.881582,30.9085721 26.9951168,28.4512169 L26.999,28.286 L26.9977872,28.2511064 C26.9977872,27.6033249 27.4900972,27.0705285 28.1209752,27.0064593 L28.2488936,27 C28.8966751,27 29.4294715,27.49231 29.4935407,28.123188 L29.5,28.2511064 Z" id="Path" fill="#4C70F2" fill-rule="nonzero"></path>
            <path d="M57.75,28.2511064 L57.7482114,28.3185826 L57.7482114,28.3185826 L57.742906,28.3851257 C57.5392325,32.156828 54.3653009,35.382797 50.5,35.382797 C46.5832707,35.382797 43.3830323,32.317086 43.2540416,28.4802252 L43.25,28.239438 C43.2571623,27.5557767 43.8137544,27.0035706 44.4993211,27.0035706 C45.1461783,27.0035706 45.6782144,27.4951781 45.7421922,28.1251559 L45.747,28.239 C45.75,31.0869616 47.8253034,32.7866112 50.2880022,32.878839 L50.5,32.882797 C53.0525033,32.882797 55.131582,30.9085721 55.2451168,28.4512169 L55.249,28.286 L55.2477872,28.2511064 C55.2477872,27.6033249 55.7400972,27.0705285 56.3709752,27.0064593 L56.4988936,27 C57.1466751,27 57.6794715,27.49231 57.7435407,28.123188 L57.75,28.2511064 Z" id="Path-Copy" fill="#4C70F2" fill-rule="nonzero"></path>
        </g>
    </g>
</svg>