<?xml version="1.0" encoding="UTF-8"?>
<svg width="28px" height="28px" viewBox="0 0 28 28" version="1.1" xmlns="http://www.w3.org/2000/svg" xmlns:xlink="http://www.w3.org/1999/xlink">
    <g id="Symbols" stroke="none" stroke-width="1" fill="currentColor" fill-rule="evenodd">
        <g id="Icon-/-Circle-/-X" fill="currentColor">
            <path d="M14,0 C21.7206447,0 28,6.28054596 28,14 C28,21.7202215 21.7206447,28 14,28 C6.28012279,28 0,21.7202215 0,14 C0,6.28054596 6.28012279,0 14,0 Z M9.61289944,8.20970461 C9.22060824,7.90467972 8.65337718,7.93240926 8.29289322,8.29289322 C7.90236893,8.68341751 7.90236893,9.31658249 8.29289322,9.70710678 L8.29289322,9.70710678 L12.585,14 L8.29289322,18.2928932 L8.20970461,18.3871006 C7.90467972,18.7793918 7.93240926,19.3466228 8.29289322,19.7071068 C8.68341751,20.0976311 9.31658249,20.0976311 9.70710678,19.7071068 L9.70710678,19.7071068 L14,15.415 L18.2928932,19.7071068 L18.3871006,19.7902954 C18.7793918,20.0953203 19.3466228,20.0675907 19.7071068,19.7071068 C20.0976311,19.3165825 20.0976311,18.6834175 19.7071068,18.2928932 L19.7071068,18.2928932 L15.415,14 L19.7071068,9.70710678 L19.7902954,9.61289944 C20.0953203,9.22060824 20.0675907,8.65337718 19.7071068,8.29289322 C19.3165825,7.90236893 18.6834175,7.90236893 18.2928932,8.29289322 L18.2928932,8.29289322 L14,12.585 L9.70710678,8.29289322 Z" id="Combined-Shape"></path>
        </g>
    </g>
</svg>